<?xml version="1.0" encoding="UTF-8"?>
<!DOCTYPE svg PUBLIC "-//W3C//DTD SVG 1.1//EN" "http://www.w3.org/Graphics/SVG/1.1/DTD/svg11.dtd">
<!-- Creator: CorelDRAW -->
<svg xmlns="http://www.w3.org/2000/svg" xml:space="preserve" width="252px" height="256px" version="1.1" style="shape-rendering:geometricPrecision; text-rendering:geometricPrecision; image-rendering:optimizeQuality; fill-rule:evenodd; clip-rule:evenodd"
viewBox="0 0 252 256.1"
 xmlns:xlink="http://www.w3.org/1999/xlink"
 xmlns:xodm="http://www.corel.com/coreldraw/odm/2003">
 <defs>
  <style type="text/css">
   <![CDATA[
    .fil0 {fill:black;fill-rule:nonzero}
   ]]>
  </style>
 </defs>
 <g id="Слой_x0020_1">
  <metadata id="CorelCorpID_0Corel-Layer"/>
  <path class="fil0" d="M187.07 131.87c-23.94,13.6 -24.92,8.66 -47.16,-4.26 0.02,-0.38 0.04,-0.76 0.04,-1.14 0,-11.01 -8.93,-19.94 -19.95,-19.94 -1.93,0 -3.8,0.28 -5.57,0.79l-107.59 -107.32 -6.84 0.06 0.04 16.53 101.84 101.57c-1.17,2.53 -1.82,5.35 -1.82,8.32 0,11.02 8.93,19.94 19.94,19.94 1.09,0 2.14,-0.08 3.18,-0.25 15.44,17.66 14.79,26.14 -3.33,51.87 35.29,24 61.45,40.27 132.15,58.06 -14.43,-57.24 -32.72,-93.37 -58.31,-129.41l-6.62 5.18 0 0z"/>
 </g>
</svg>
