<?xml version="1.0" encoding="UTF-8"?>
<!DOCTYPE svg PUBLIC "-//W3C//DTD SVG 1.1//EN" "http://www.w3.org/Graphics/SVG/1.1/DTD/svg11.dtd">
<!-- Creator: CorelDRAW -->
<svg xmlns="http://www.w3.org/2000/svg" xml:space="preserve" width="252px" height="266px" version="1.1" style="shape-rendering:geometricPrecision; text-rendering:geometricPrecision; image-rendering:optimizeQuality; fill-rule:evenodd; clip-rule:evenodd"
viewBox="0 0 252 266.3"
 xmlns:xlink="http://www.w3.org/1999/xlink"
 xmlns:xodm="http://www.corel.com/coreldraw/odm/2003">
 <defs>
  <style type="text/css">
   <![CDATA[
    .fil0 {fill:black;fill-rule:nonzero}
   ]]>
  </style>
 </defs>
 <g id="Слой_x0020_1">
  <metadata id="CorelCorpID_0Corel-Layer"/>
  <g id="_1826608986752">
   <path class="fil0" d="M160.56 62.86c-4.3,9.06 -3.89,12.07 -9,20.24 27.16,28.47 50.74,90.16 69.43,144.26l3.25 9.38 -9.36 -3.31c-53.6,-18.96 -118.27,-43.5 -145.79,-69.46 -8.17,5.11 -11.48,6.59 -20.54,10.89 27.49,18.27 62.24,35.44 97.02,48.72 -7.39,3.68 -15.33,6.96 -23.85,9.87l0 0c34.95,19.77 89.89,33.52 130.26,32.83 0.68,-39.96 -13.87,-96.74 -32.83,-130.26 -2.95,8.64 -6.28,16.68 -10.02,24.15 -13.54,-35.43 -30.92,-70.74 -48.57,-97.31l0 0 0 0z"/>
   <path class="fil0" d="M137.98 94.53c-22.25,12.64 -23.16,8.04 -43.84,-3.97 0.02,-0.35 0.04,-0.7 0.04,-1.05 0,-10.24 -8.3,-18.54 -18.54,-18.54 -1.8,0 -3.53,0.26 -5.18,0.74l-70.44 -71.71 -0.02 13.7 0.06 9.5 58.73 58.58c-1.08,2.35 -1.69,4.97 -1.69,7.74 0,10.23 8.3,18.53 18.54,18.53 1.01,0 1.99,-0.08 2.96,-0.23 14.34,16.41 13.74,24.29 -3.1,48.21 32.8,22.31 57.11,37.44 122.83,53.97 -13.41,-53.2 -30.42,-86.79 -54.2,-120.29l-6.15 4.82 0 0 0 0z"/>
  </g>
 </g>
</svg>
